<?xml version="1.0" encoding="UTF-8" standalone="no"?>
<svg
   xmlns:dc="http://purl.org/dc/elements/1.1/"
   xmlns:cc="http://creativecommons.org/ns#"
   xmlns:rdf="http://www.w3.org/1999/02/22-rdf-syntax-ns#"
   xmlns:svg="http://www.w3.org/2000/svg"
   xmlns="http://www.w3.org/2000/svg"
   xmlns:sodipodi="http://sodipodi.sourceforge.net/DTD/sodipodi-0.dtd"
   xmlns:inkscape="http://www.inkscape.org/namespaces/inkscape"
   id="Layer_1"
   enable-background="new 0 0 512 512"
   height="128"
   viewBox="0 0 128 128"
   width="128"
   version="1.1"
   sodipodi:docname="iconwhite.svg"
   inkscape:version="0.92.4 (5da689c313, 2019-01-14)">
  <metadata
     id="metadata11">
    <rdf:RDF>
      <cc:Work
         rdf:about="">
        <dc:format>image/svg+xml</dc:format>
        <dc:type
           rdf:resource="http://purl.org/dc/dcmitype/StillImage" />
        <dc:title></dc:title>
      </cc:Work>
    </rdf:RDF>
  </metadata>
  <defs
     id="defs9" />
  <sodipodi:namedview
     pagecolor="#ffffff"
     bordercolor="#666666"
     borderopacity="1"
     objecttolerance="10"
     gridtolerance="10"
     guidetolerance="10"
     inkscape:pageopacity="0"
     inkscape:pageshadow="2"
     inkscape:window-width="1920"
     inkscape:window-height="1027"
     id="namedview7"
     showgrid="false"
     inkscape:zoom="1.84375"
     inkscape:cx="229.15254"
     inkscape:cy="135.47357"
     inkscape:window-x="-8"
     inkscape:window-y="-8"
     inkscape:window-maximized="1"
     inkscape:current-layer="XMLID_17_" />
  <g
     id="XMLID_2749_"
     transform="matrix(0.24788135,0,0,0.24682203,0.54237288,1.6271187)">
    <g
       id="XMLID_17_"
       transform="matrix(0.96581197,0,0,0.90987124,6.5641027,26.369099)">
      <path
         id="XMLID_848_"
         d="M 479.733,129.47 C 460.861,110.354 436.268,98.849 409.772,96.586 403.679,70.791 389.428,47.387 369.088,30.017 346.423,10.66 317.505,0 287.66,0 247.744,0 210.701,18.737 187.043,50.507 c -10.442,-3.404 -21.324,-5.126 -32.45,-5.126 -11.155,0 -22.139,1.745 -32.646,5.187 -5.249,1.719 -8.11,7.367 -6.391,12.615 1.719,5.248 7.369,8.112 12.616,6.391 8.495,-2.781 17.384,-4.192 26.421,-4.192 11.22,0 22.124,2.159 32.41,6.416 4.449,1.845 9.579,0.252 12.206,-3.783 C 218.78,37.949 251.846,20 287.66,20 c 51.699,0 95.434,36.942 103.992,87.842 0.801,4.764 4.893,8.274 9.724,8.341 49.97,0.69 90.624,41.919 90.624,91.904 0,50.686 -41.236,91.921 -91.921,91.921 H 389 v -57.796 c 0,-11.527 -7.401,-27.916 -42.658,-40.528 -24.285,-8.688 -56.369,-13.472 -90.342,-13.472 -33.973,0 -66.057,4.784 -90.342,13.472 C 130.401,214.296 123,230.685 123,242.212 v 57.796 H 84.156 C 48.78,300.008 20,271.228 20,235.853 c 0,-27.786 17.732,-52.279 44.124,-60.948 4.671,-1.535 7.534,-6.238 6.751,-11.093 -0.726,-4.498 -1.093,-9.08 -1.093,-13.62 0,-8.431 1.231,-16.751 3.659,-24.73 1.608,-5.283 -1.372,-10.87 -6.656,-12.478 -5.282,-1.611 -10.87,1.371 -12.478,6.655 -3.003,9.868 -4.525,20.147 -4.525,30.553 0,2.887 0.121,5.786 0.359,8.679 C 19.837,172.216 0,202.192 0,235.853 c 0,46.403 37.752,84.155 84.156,84.155 H 123 V 458 c 0,11.527 7.401,27.916 42.658,40.528 C 189.942,507.216 222.027,512 256,512 c 33.973,0 66.058,-4.784 90.342,-13.472 C 381.599,485.916 389,469.527 389,458 V 320.008 h 11.079 c 61.714,0 111.921,-50.207 111.921,-111.921 0,-29.62 -11.459,-57.54 -32.267,-78.617 z M 369,314.142 c 0,5.158 -7.698,13.936 -29.394,21.697 -22.178,7.934 -51.87,12.303 -83.606,12.303 -31.736,0 -61.428,-4.369 -83.606,-12.303 C 150.698,328.077 143,319.3 143,314.142 v -42.149 c 5.832,3.742 13.243,7.38 22.658,10.748 24.285,8.688 56.369,13.472 90.342,13.472 33.973,0 66.058,-4.784 90.342,-13.472 9.414,-3.368 16.826,-7.006 22.658,-10.748 z m -226,29.78 c 5.832,3.742 13.243,7.38 22.658,10.748 24.285,8.688 56.369,13.472 90.342,13.472 33.973,0 66.058,-4.784 90.342,-13.472 9.414,-3.368 16.826,-7.006 22.658,-10.748 v 42.148 c 0,5.158 -7.698,13.936 -29.394,21.697 -22.178,7.934 -51.87,12.303 -83.606,12.303 -31.736,0 -61.428,-4.369 -83.606,-12.303 C 150.698,400.006 143,391.229 143,386.07 Z m 29.394,-123.406 c 22.179,-7.935 51.87,-12.304 83.606,-12.304 31.736,0 61.427,4.369 83.606,12.304 21.696,7.76 29.394,16.538 29.394,21.696 0,5.158 -7.698,13.936 -29.394,21.697 -22.178,7.934 -51.87,12.303 -83.606,12.303 -31.736,0 -61.428,-4.369 -83.606,-12.303 C 150.698,256.147 143,247.37 143,242.212 c 0,-5.158 7.698,-13.936 29.394,-21.696 z M 339.606,479.697 C 317.428,487.631 287.736,492 256,492 224.264,492 194.572,487.631 172.394,479.697 150.698,471.936 143,463.158 143,458 v -42.149 c 5.832,3.742 13.243,7.38 22.658,10.748 24.285,8.688 56.369,13.472 90.342,13.472 33.973,0 66.058,-4.784 90.342,-13.472 9.414,-3.368 16.826,-7.006 22.658,-10.748 V 458 c 0,5.158 -7.698,13.936 -29.394,21.697 z"
         inkscape:connector-curvature="0"
         style="fill:#ffffff;fill-opacity:1" />
      <path
         id="XMLID_893_"
         d="m 86.86,93.859 c 2.63,0 5.21,-1.069 7.07,-2.93 1.86,-1.87 2.93,-4.439 2.93,-7.08 0,-2.63 -1.07,-5.2 -2.93,-7.069 -1.86,-1.86 -4.44,-2.921 -7.07,-2.921 -2.63,0 -5.21,1.061 -7.07,2.921 -1.86,1.869 -2.93,4.439 -2.93,7.069 0,2.641 1.07,5.21 2.93,7.08 1.86,1.861 4.44,2.93 7.07,2.93 z"
         inkscape:connector-curvature="0"
         style="fill:#ffffff;fill-opacity:1" />
    </g>
  </g>
</svg>
